<?xml version="1.0" standalone="no"?><!-- Generator: Gravit.io --><svg xmlns="http://www.w3.org/2000/svg" xmlns:xlink="http://www.w3.org/1999/xlink" style="isolation:isolate" viewBox="0 0 120 120" width="120" height="120"><defs><clipPath id="_clipPath_FIuNI8pPjdmq1JZejlRJyDhxsSnpa4FW"><rect width="120" height="120"/></clipPath></defs><g clip-path="url(#_clipPath_FIuNI8pPjdmq1JZejlRJyDhxsSnpa4FW)"><path d="M 37.105 40 L 82.895 40 C 92.336 40 100 47.664 100 57.105 L 100 102.895 C 100 112.336 92.336 120 82.895 120 L 37.105 120 C 27.664 120 20 112.336 20 102.895 L 20 57.105 C 20 47.664 27.664 40 37.105 40 Z" style="stroke:none;fill:#000000;stroke-miterlimit:10;"/><path d=" M 104 60 L 60 60 L 16 60 C 7.169 60 5.07 54.93 11.314 48.686 L 30 30 L 48.686 11.314 C 54.93 5.07 65.07 5.07 71.314 11.314 L 90 30 L 108.686 48.686 C 114.93 54.93 112.831 60 104 60 Z " fill="rgb(0,0,0)"/></g></svg>